<svg xmlns="http://www.w3.org/2000/svg" xmlns:xlink="http://www.w3.org/1999/xlink" fill="none" version="1.1" width="18.97007179260254" height="18.970571517944336" viewBox="0 0 18.97007179260254 18.970571517944336"><g><path d="M3.12229,10.1928L4.95029,12.0218L6.36629,10.6058L4.53629,8.77879L5.95029,7.36479L7.77929,9.19279L9.19329,7.77879L7.36629,5.94979L8.78029,4.53579L10.6063,6.36579L12.0213,4.95079L10.1923,3.12279L13.0213,0.294786C13.4118,-0.0955954,14.0448,-0.0955954,14.4353,0.294786L18.6773,4.53679C19.0677,4.92729,19.0677,5.56029,18.6773,5.95079L5.95029,18.6778C5.55979,19.0682,4.92679,19.0682,4.53629,18.6778L0.294287,14.4358C-0.0960951,14.0453,-0.0960951,13.4123,0.294287,13.0218L3.12229,10.1928ZM11.6073,15.8488L15.8503,11.6068L18.4863,14.2428L18.4863,18.4858L14.2443,18.4858L11.6073,15.8488ZM3.12229,7.36379L0.293287,4.53579C-0.0977621,4.14517,-0.0977621,3.5114,0.293287,3.12079L3.12229,0.292786C3.51279,-0.0975955,4.14579,-0.0975955,4.53629,0.292786L7.36629,3.12079L3.12229,7.36379Z" fill="#F24E1E" fill-opacity="1"/></g></svg>