<svg width="32" height="32" viewBox="0 0 32 32" fill="none" xmlns="http://www.w3.org/2000/svg">
<rect width="32" height="32" fill="black"/>
<path d="M2.00852 17.4432V16.875L6.58239 14.5455V15.4545L3.07386 17.1449L3.10227 17.0881V17.2301L3.07386 17.1733L6.58239 18.8636V19.7727L2.00852 17.4432ZM10.9299 12.3864L8.58612 21.0938H7.81907L10.1628 12.3864H10.9299Z" fill="#1BFF22"/>
<path d="M11.6392 13.5085V12.7273H17.0938V13.5085H14.8068V20H13.9261V13.5085H11.6392ZM18.4529 20V12.7273H22.8137V13.5085H19.3336V15.9659H22.487V16.7472H19.3336V20H18.4529Z" fill="white"/>
<path d="M29.0238 16.7614L24.4499 19.0909V18.1818L27.9585 16.4915L27.93 16.5483V16.4062L27.9585 16.4631L24.4499 14.7727V13.8636L29.0238 16.1932V16.7614Z" fill="#1BFF22"/>
</svg>
