<svg xmlns="http://www.w3.org/2000/svg" xmlns:xlink="http://www.w3.org/1999/xlink" fill="none" version="1.1" width="20" height="18" viewBox="0 0 20 18"><g><path d="M1,0L19,0C19.5523,0,20,0.447715,20,1L20,17C20,17.5523,19.5523,18,19,18L1,18C0.447715,18,0,17.5523,0,17L0,1C0,0.447715,0.447715,0,1,0ZM14.464,12.536L18,9L14.464,5.464L13.05,6.88L15.172,9L13.05,11.121L14.464,12.536ZM4.828,9L6.95,6.879L5.536,5.464L2,9L5.536,12.536L6.95,11.12L4.828,9ZM9.244,14L12.884,4L10.756,4L7.116,14L9.244,14Z" fill="#1ABCFE" fill-opacity="1"/></g></svg>