<svg xmlns="http://www.w3.org/2000/svg" xmlns:xlink="http://www.w3.org/1999/xlink" fill="none" version="1.1" width="18" height="18" viewBox="0 0 18 18"><g><path d="M15.335,15.339L12.67,15.339L12.67,11.162C12.67,10.166,12.65,8.884,11.28,8.884C9.891,8.884,9.679,9.968,9.679,11.089L9.679,15.339L7.013,15.339L7.013,6.75L9.573,6.75L9.573,7.92L9.608,7.92C9.966,7.246,10.836,6.533,12.136,6.533C14.836,6.533,15.336,8.311,15.336,10.624L15.336,15.339L15.335,15.339ZM4.003,5.575C3.14721,5.57611,2.45334,4.88178,2.455,4.026C2.45555,3.17106,3.14906,2.47845,4.004,2.479C4.85894,2.47955,5.55155,3.17306,5.551,4.028C5.55045,4.88294,4.85694,5.57555,4.003,5.575L4.003,5.575ZM5.339,15.339L2.666,15.339L2.666,6.75L5.34,6.75L5.34,15.339L5.339,15.339ZM16.67,0L1.329,0C0.593,0,0,0.58,0,1.297L0,16.703C0,17.42,0.594,18,1.328,18L16.666,18C17.4,18,18,17.42,18,16.703L18,1.297C18,0.58,17.4,0,16.666,0L16.67,0L16.67,0Z" fill="#fff" fill-opacity="1"/></g></svg>