<svg xmlns="http://www.w3.org/2000/svg" xmlns:xlink="http://www.w3.org/1999/xlink" fill="none" version="1.1" width="17.83100128173828" height="13.677000045776367" viewBox="0 0 17.83100128173828 13.677000045776367"><g><path d="M1.583,12.498C0.553,11.404,0,10.177,0,8.188C0,4.688,2.457,1.551,6.03,0L6.923,1.378C3.588,3.182,2.936,5.523,2.676,6.999C3.213,6.721,3.916,6.624,4.605,6.688C6.409,6.855,7.831,8.336,7.831,10.177C7.831,12.11,6.264,13.677,4.331,13.677C3.258,13.677,2.232,13.187,1.583,12.498ZM11.583,12.498C10.553,11.404,10,10.177,10,8.188C10,4.688,12.457,1.551,16.03,0L16.923,1.378C13.588,3.182,12.936,5.523,12.676,6.999C13.213,6.721,13.916,6.624,14.605,6.688C16.409,6.855,17.831,8.336,17.831,10.177C17.831,12.11,16.264,13.677,14.331,13.677C13.258,13.677,12.232,13.187,11.583,12.498Z" fill="#FFFFFF" fill-opacity="1"/></g></svg>