<svg xmlns="http://www.w3.org/2000/svg" xmlns:xlink="http://www.w3.org/1999/xlink" fill="none" version="1.1" width="17.829999923706055" height="13.677000999450684" viewBox="0 0 17.829999923706055 13.677000999450684"><g><path d="M16.247,1.179C17.277,2.273,17.83,3.5,17.83,5.489C17.83,8.989,15.373,12.126,11.8,13.677L10.907,12.299C14.242,10.495,14.894,8.154,15.154,6.678C14.617,6.956,13.914,7.053,13.225,6.989C11.421,6.822,9.999,5.341,9.999,3.5C9.999,1.567,11.566,0,13.499,0C14.572,0,15.598,0.49,16.247,1.179ZM6.247,1.179C7.277,2.273,7.83,3.5,7.83,5.489C7.83,8.989,5.373,12.126,1.8,13.677L0.907,12.299C4.242,10.495,4.894,8.154,5.154,6.678C4.617,6.956,3.914,7.053,3.225,6.989C1.421,6.822,0,5.341,0,3.5C0,1.567,1.567,0.00000143051,3.5,9.53674e-7C4.573,9.53674e-7,5.599,0.490001,6.248,1.179L6.247,1.179Z" fill="#FFFFFF" fill-opacity="1"/></g></svg>