<svg xmlns="http://www.w3.org/2000/svg" xmlns:xlink="http://www.w3.org/1999/xlink" fill="none" version="1.1" width="24" height="24" viewBox="0 0 24 24"><defs><clipPath id="master_svg0_23_4"><rect x="0" y="0" width="24" height="24" rx="0"/></clipPath></defs><g clip-path="url(#master_svg0_23_4)"><g><path d="M2.0039999525131225,22L3.3559960525131225,17.032C2.4651380525131223,15.5049,1.9970961825131226,13.768,2.0000000000131224,12C2.0000000000131224,6.477,6.4769960525131225,2,11.999986052513123,2C17.522986052513122,2,21.999986052513123,6.477,21.999986052513123,12C21.999986052513123,17.523,17.522986052513122,22,11.999986052513123,22C10.232776052513122,22.0029,8.496656052513123,21.5352,6.969996052513123,20.645L2.0039999525131225,22ZM8.390996052513122,7.308C8.261866052513122,7.31602,8.135676052513123,7.35003,8.019996052513122,7.408C7.9115160525131225,7.46943,7.812496052513122,7.54622,7.725996052513122,7.636C7.605996052513123,7.749,7.537996052513122,7.847,7.464996052513123,7.942C7.095406052513122,8.423,6.896606052513123,9.01342,6.8999960525131225,9.620000000000001C6.901996052513122,10.11,7.029996052513122,10.587,7.229996052513123,11.033C7.638996052513122,11.935,8.311996052513123,12.89,9.200996052513123,13.775C9.414996052513121,13.988,9.623996052513123,14.202,9.848996052513122,14.401C10.952386052513123,15.3725,12.267286052513123,16.073,13.688986052513123,16.447L14.257986052513122,16.534C14.442986052513122,16.544,14.627986052513123,16.53,14.813986052513123,16.521C15.105286052513122,16.506,15.389586052513122,16.4271,15.646986052513123,16.29C15.812986052513123,16.201999999999998,15.890986052513123,16.158,16.029986052513124,16.07Q16.072986052513123,16.042,16.154986052513124,15.98C16.28998605251312,15.88,16.37298605251312,15.809,16.484986052513122,15.692C16.56798605251312,15.606,16.639986052513123,15.505,16.694986052513123,15.39C16.772986052513122,15.227,16.85098605251312,14.916,16.88298605251312,14.657C16.906986052513123,14.459,16.89998605251312,14.351,16.89698605251312,14.284C16.892986052513123,14.177,16.803986052513125,14.066,16.706986052513123,14.019L16.124986052513123,13.758Q15.254986052513123,13.379,14.723986052513123,13.137C14.667986052513122,13.1126,14.607986052513123,13.0987,14.546986052513123,13.096C14.408586052513122,13.0818,14.270786052513122,13.1281,14.168986052513123,13.223L14.168986052513123,13.221C14.163986052513122,13.221,14.096986052513122,13.278,13.373986052513123,14.154C13.289086052513122,14.2681,13.143686052513123,14.3194,13.005986052513123,14.284C12.940886052513122,14.2666,12.876986052513123,14.2445,12.814986052513122,14.218C12.690986052513123,14.166,12.647986052513122,14.146,12.562986052513123,14.109L12.557986052513122,14.107C11.985906052513123,13.8572,11.456226052513122,13.5198,10.987996052513122,13.107C10.861996052513122,12.997,10.744996052513123,12.877,10.624996052513122,12.761C10.231576052513123,12.3842,9.888716052513121,11.95801,9.604996052513123,11.493L9.545996052513122,11.398C9.503616052513124,11.33416,9.469356052513122,11.2653,9.443996052513121,11.193Q9.405996052513123,11.046,9.504996052513123,10.928Q9.747996052513123,10.662,9.860996052513123,10.518C9.955086052513122,10.39832,10.042876052513122,10.27382,10.123996052513123,10.145C10.241996052513123,9.955,10.278996052513122,9.76,10.216996052513123,9.609C9.936996052513123,8.925,9.646996052513122,8.244,9.348996052513122,7.568C9.289996052513121,7.434,9.114996052513122,7.338,8.955996052513122,7.319C8.901996052513123,7.313,8.847996052513123,7.307,8.793996052513123,7.303C8.659706052513123,7.29633,8.525136052513123,7.29766,8.390996052513122,7.307L8.390996052513122,7.308Z" fill="#0acf83
" fill-opacity="1"/></g></g></svg>